<mxfile host="app.diagrams.net" agent="Mozilla/5.0 (Macintosh; Intel Mac OS X 10_15_7) AppleWebKit/537.36 (KHTML, like Gecko) Chrome/141.0.0.0 Safari/537.36" version="28.2.7">
  <diagram name="POS_Microservice_Architecture" id="-jMIbYz84GLAlr-iyTnj">
    <mxGraphModel dx="1635" dy="1364" grid="1" gridSize="10" guides="1" tooltips="1" connect="1" arrows="1" fold="1" page="1" pageScale="1" pageWidth="827" pageHeight="1169" math="0" shadow="0">
      <root>
        <mxCell id="0" />
        <mxCell id="1" parent="0" />
        <mxCell id="njJukKCMJdsK1ICvW-uf-1" value="Store / Edge" style="swimlane;rounded=1;html=1;horizontal=0;startSize=26;fillColor=#f5f5f5;strokeColor=#666666;fontStyle=1;" vertex="1" parent="1">
          <mxGeometry x="390" y="410" width="460" height="440" as="geometry" />
        </mxCell>
        <mxCell id="njJukKCMJdsK1ICvW-uf-2" value="Core Services" style="swimlane;rounded=1;html=1;horizontal=0;startSize=26;fillColor=#f5f5f5;strokeColor=#666666;fontStyle=1;" vertex="1" parent="1">
          <mxGeometry x="890" y="410" width="560" height="440" as="geometry" />
        </mxCell>
        <mxCell id="njJukKCMJdsK1ICvW-uf-3" value="Data Platform" style="swimlane;rounded=1;html=1;horizontal=0;startSize=26;fillColor=#f5f5f5;strokeColor=#666666;fontStyle=1;" vertex="1" parent="1">
          <mxGeometry x="1470" y="410" width="560" height="440" as="geometry" />
        </mxCell>
        <mxCell id="njJukKCMJdsK1ICvW-uf-4" value="POS Terminal(s)&#xa;(Scanner, Payment, Receipt)" style="rounded=1;whiteSpace=wrap;html=1;fillColor=#dae8fc;strokeColor=#6c8ebf;fontSize=12;" vertex="1" parent="1">
          <mxGeometry x="410" y="470" width="180" height="70" as="geometry" />
        </mxCell>
        <mxCell id="njJukKCMJdsK1ICvW-uf-5" value="POS Edge Service&#xa;(Buffering, Offline Sync)" style="rounded=1;whiteSpace=wrap;html=1;fillColor=#d5e8d4;strokeColor=#82b366;fontSize=12;" vertex="1" parent="1">
          <mxGeometry x="610" y="470" width="180" height="70" as="geometry" />
        </mxCell>
        <mxCell id="njJukKCMJdsK1ICvW-uf-6" value="Store IoT Sensors&#xa;(Temp, Energy, Scales)" style="rounded=1;whiteSpace=wrap;html=1;fillColor=#dae8fc;strokeColor=#6c8ebf;fontSize=12;" vertex="1" parent="1">
          <mxGeometry x="410" y="590" width="180" height="70" as="geometry" />
        </mxCell>
        <mxCell id="njJukKCMJdsK1ICvW-uf-7" value="Edge API Gateway" style="rounded=1;whiteSpace=wrap;html=1;fillColor=#d5e8d4;strokeColor=#82b366;fontSize=12;" vertex="1" parent="1">
          <mxGeometry x="610" y="590" width="180" height="70" as="geometry" />
        </mxCell>
        <mxCell id="njJukKCMJdsK1ICvW-uf-8" value="Central API Gateway" style="rounded=1;whiteSpace=wrap;html=1;fillColor=#d5e8d4;strokeColor=#82b366;fontSize=12;" vertex="1" parent="1">
          <mxGeometry x="930" y="470" width="180" height="70" as="geometry" />
        </mxCell>
        <mxCell id="njJukKCMJdsK1ICvW-uf-9" value="Sales Ingestion Service" style="rounded=1;whiteSpace=wrap;html=1;fillColor=#e1d5e7;strokeColor=#9673a6;fontSize=12;" vertex="1" parent="1">
          <mxGeometry x="1130" y="450" width="180" height="70" as="geometry" />
        </mxCell>
        <mxCell id="njJukKCMJdsK1ICvW-uf-10" value="Inventory Service" style="rounded=1;whiteSpace=wrap;html=1;fillColor=#e1d5e7;strokeColor=#9673a6;fontSize=12;" vertex="1" parent="1">
          <mxGeometry x="1130" y="540" width="180" height="70" as="geometry" />
        </mxCell>
        <mxCell id="njJukKCMJdsK1ICvW-uf-11" value="Pricing/Promotion Service" style="rounded=1;whiteSpace=wrap;html=1;fillColor=#e1d5e7;strokeColor=#9673a6;fontSize=12;" vertex="1" parent="1">
          <mxGeometry x="1130" y="630" width="180" height="70" as="geometry" />
        </mxCell>
        <mxCell id="njJukKCMJdsK1ICvW-uf-12" value="Notification Service" style="rounded=1;whiteSpace=wrap;html=1;fillColor=#e1d5e7;strokeColor=#9673a6;fontSize=12;" vertex="1" parent="1">
          <mxGeometry x="1130" y="720" width="180" height="70" as="geometry" />
        </mxCell>
        <mxCell id="njJukKCMJdsK1ICvW-uf-13" value="Streaming Layer&#xa;(Apache Kafka)" style="rounded=1;whiteSpace=wrap;html=1;fillColor=#f8cecc;strokeColor=#b85450;fontSize=12;" vertex="1" parent="1">
          <mxGeometry x="930" y="630" width="180" height="70" as="geometry" />
        </mxCell>
        <mxCell id="njJukKCMJdsK1ICvW-uf-14" value="Stream Processing&#xa;(Flink/Spark Streaming)" style="rounded=1;whiteSpace=wrap;html=1;fillColor=#e1d5e7;strokeColor=#9673a6;fontSize=12;" vertex="1" parent="1">
          <mxGeometry x="1510" y="470" width="180" height="70" as="geometry" />
        </mxCell>
        <mxCell id="njJukKCMJdsK1ICvW-uf-15" value="DataOps Orchestration&#xa;(Airflow)" style="rounded=1;whiteSpace=wrap;html=1;fillColor=#f8cecc;strokeColor=#b85450;fontSize=12;" vertex="1" parent="1">
          <mxGeometry x="1510" y="570" width="180" height="70" as="geometry" />
        </mxCell>
        <mxCell id="njJukKCMJdsK1ICvW-uf-16" value="Data Lake&#xa;(Object Storage, e.g. S3/ADLS)" style="rounded=1;whiteSpace=wrap;html=1;fillColor=#fff2cc;strokeColor=#d6b656;fontSize=12;" vertex="1" parent="1">
          <mxGeometry x="1710" y="450" width="180" height="70" as="geometry" />
        </mxCell>
        <mxCell id="njJukKCMJdsK1ICvW-uf-17" value="Data Warehouse / BI&#xa;(BigQuery/Snowflake/Redshift)" style="rounded=1;whiteSpace=wrap;html=1;fillColor=#fff2cc;strokeColor=#d6b656;fontSize=12;" vertex="1" parent="1">
          <mxGeometry x="1710" y="570" width="180" height="70" as="geometry" />
        </mxCell>
        <mxCell id="njJukKCMJdsK1ICvW-uf-18" value="Feature Store&#xa;(ML Features)" style="rounded=1;whiteSpace=wrap;html=1;fillColor=#fff2cc;strokeColor=#d6b656;fontSize=12;" vertex="1" parent="1">
          <mxGeometry x="1710" y="690" width="180" height="70" as="geometry" />
        </mxCell>
        <mxCell id="njJukKCMJdsK1ICvW-uf-19" value="ML Service&#xa;(Forecasting, Reco)" style="rounded=1;whiteSpace=wrap;html=1;fillColor=#e1d5e7;strokeColor=#9673a6;fontSize=12;" vertex="1" parent="1">
          <mxGeometry x="1910" y="570" width="180" height="70" as="geometry" />
        </mxCell>
        <mxCell id="njJukKCMJdsK1ICvW-uf-20" value="Monitoring &amp; Logging&#xa;(Prometheus/Grafana)" style="rounded=1;whiteSpace=wrap;html=1;fillColor=#f8cecc;strokeColor=#b85450;fontSize=12;" vertex="1" parent="1">
          <mxGeometry x="1510" y="690" width="180" height="70" as="geometry" />
        </mxCell>
        <mxCell id="njJukKCMJdsK1ICvW-uf-21" value="" style="endArrow=block;rounded=0;edgeStyle=orthogonalEdgeStyle;orthogonalLoop=1;jettySize=auto;html=1;" edge="1" parent="1" source="njJukKCMJdsK1ICvW-uf-4" target="njJukKCMJdsK1ICvW-uf-5">
          <mxGeometry relative="1" as="geometry" />
        </mxCell>
        <mxCell id="njJukKCMJdsK1ICvW-uf-22" value="" style="endArrow=block;rounded=0;edgeStyle=orthogonalEdgeStyle;orthogonalLoop=1;jettySize=auto;html=1;" edge="1" parent="1" source="njJukKCMJdsK1ICvW-uf-5" target="njJukKCMJdsK1ICvW-uf-7">
          <mxGeometry relative="1" as="geometry" />
        </mxCell>
        <mxCell id="njJukKCMJdsK1ICvW-uf-23" value="" style="endArrow=block;rounded=0;edgeStyle=orthogonalEdgeStyle;orthogonalLoop=1;jettySize=auto;html=1;" edge="1" parent="1" source="njJukKCMJdsK1ICvW-uf-7" target="njJukKCMJdsK1ICvW-uf-8">
          <mxGeometry relative="1" as="geometry" />
        </mxCell>
        <mxCell id="njJukKCMJdsK1ICvW-uf-24" value="" style="endArrow=block;rounded=0;edgeStyle=orthogonalEdgeStyle;orthogonalLoop=1;jettySize=auto;html=1;" edge="1" parent="1" source="njJukKCMJdsK1ICvW-uf-6" target="njJukKCMJdsK1ICvW-uf-7">
          <mxGeometry relative="1" as="geometry" />
        </mxCell>
        <mxCell id="njJukKCMJdsK1ICvW-uf-25" value="" style="endArrow=block;rounded=0;edgeStyle=orthogonalEdgeStyle;orthogonalLoop=1;jettySize=auto;html=1;" edge="1" parent="1" source="njJukKCMJdsK1ICvW-uf-8" target="njJukKCMJdsK1ICvW-uf-9">
          <mxGeometry relative="1" as="geometry" />
        </mxCell>
        <mxCell id="njJukKCMJdsK1ICvW-uf-26" value="" style="endArrow=block;rounded=0;edgeStyle=orthogonalEdgeStyle;orthogonalLoop=1;jettySize=auto;html=1;" edge="1" parent="1" source="njJukKCMJdsK1ICvW-uf-8" target="njJukKCMJdsK1ICvW-uf-10">
          <mxGeometry relative="1" as="geometry" />
        </mxCell>
        <mxCell id="njJukKCMJdsK1ICvW-uf-27" value="" style="endArrow=block;rounded=0;edgeStyle=orthogonalEdgeStyle;orthogonalLoop=1;jettySize=auto;html=1;" edge="1" parent="1" source="njJukKCMJdsK1ICvW-uf-8" target="njJukKCMJdsK1ICvW-uf-11">
          <mxGeometry relative="1" as="geometry" />
        </mxCell>
        <mxCell id="njJukKCMJdsK1ICvW-uf-28" value="" style="endArrow=block;rounded=0;edgeStyle=orthogonalEdgeStyle;orthogonalLoop=1;jettySize=auto;html=1;" edge="1" parent="1" source="njJukKCMJdsK1ICvW-uf-8" target="njJukKCMJdsK1ICvW-uf-12">
          <mxGeometry relative="1" as="geometry" />
        </mxCell>
        <mxCell id="njJukKCMJdsK1ICvW-uf-29" value="" style="endArrow=block;rounded=0;edgeStyle=orthogonalEdgeStyle;orthogonalLoop=1;jettySize=auto;html=1;" edge="1" parent="1" source="njJukKCMJdsK1ICvW-uf-9" target="njJukKCMJdsK1ICvW-uf-13">
          <mxGeometry relative="1" as="geometry" />
        </mxCell>
        <mxCell id="njJukKCMJdsK1ICvW-uf-30" value="" style="endArrow=block;rounded=0;edgeStyle=orthogonalEdgeStyle;orthogonalLoop=1;jettySize=auto;html=1;" edge="1" parent="1" source="njJukKCMJdsK1ICvW-uf-7" target="njJukKCMJdsK1ICvW-uf-13">
          <mxGeometry relative="1" as="geometry" />
        </mxCell>
        <mxCell id="njJukKCMJdsK1ICvW-uf-31" value="" style="endArrow=block;rounded=0;edgeStyle=orthogonalEdgeStyle;orthogonalLoop=1;jettySize=auto;html=1;" edge="1" parent="1" source="njJukKCMJdsK1ICvW-uf-13" target="njJukKCMJdsK1ICvW-uf-14">
          <mxGeometry relative="1" as="geometry" />
        </mxCell>
        <mxCell id="njJukKCMJdsK1ICvW-uf-32" value="" style="endArrow=block;rounded=0;edgeStyle=orthogonalEdgeStyle;orthogonalLoop=1;jettySize=auto;html=1;" edge="1" parent="1" source="njJukKCMJdsK1ICvW-uf-14" target="njJukKCMJdsK1ICvW-uf-16">
          <mxGeometry relative="1" as="geometry" />
        </mxCell>
        <mxCell id="njJukKCMJdsK1ICvW-uf-33" value="" style="endArrow=block;rounded=0;edgeStyle=orthogonalEdgeStyle;orthogonalLoop=1;jettySize=auto;html=1;" edge="1" parent="1" source="njJukKCMJdsK1ICvW-uf-14" target="njJukKCMJdsK1ICvW-uf-17">
          <mxGeometry relative="1" as="geometry" />
        </mxCell>
        <mxCell id="njJukKCMJdsK1ICvW-uf-34" value="" style="endArrow=block;rounded=0;edgeStyle=orthogonalEdgeStyle;orthogonalLoop=1;jettySize=auto;html=1;" edge="1" parent="1" source="njJukKCMJdsK1ICvW-uf-14" target="njJukKCMJdsK1ICvW-uf-18">
          <mxGeometry relative="1" as="geometry" />
        </mxCell>
        <mxCell id="njJukKCMJdsK1ICvW-uf-35" value="" style="endArrow=block;rounded=0;edgeStyle=orthogonalEdgeStyle;orthogonalLoop=1;jettySize=auto;html=1;" edge="1" parent="1" source="njJukKCMJdsK1ICvW-uf-15" target="njJukKCMJdsK1ICvW-uf-16">
          <mxGeometry relative="1" as="geometry" />
        </mxCell>
        <mxCell id="njJukKCMJdsK1ICvW-uf-36" value="" style="endArrow=block;rounded=0;edgeStyle=orthogonalEdgeStyle;orthogonalLoop=1;jettySize=auto;html=1;" edge="1" parent="1" source="njJukKCMJdsK1ICvW-uf-15" target="njJukKCMJdsK1ICvW-uf-17">
          <mxGeometry relative="1" as="geometry" />
        </mxCell>
        <mxCell id="njJukKCMJdsK1ICvW-uf-37" value="" style="endArrow=block;rounded=0;edgeStyle=orthogonalEdgeStyle;orthogonalLoop=1;jettySize=auto;html=1;" edge="1" parent="1" source="njJukKCMJdsK1ICvW-uf-20" target="njJukKCMJdsK1ICvW-uf-15">
          <mxGeometry relative="1" as="geometry" />
        </mxCell>
        <mxCell id="njJukKCMJdsK1ICvW-uf-38" value="" style="endArrow=block;rounded=0;edgeStyle=orthogonalEdgeStyle;orthogonalLoop=1;jettySize=auto;html=1;" edge="1" parent="1" source="njJukKCMJdsK1ICvW-uf-18" target="njJukKCMJdsK1ICvW-uf-19">
          <mxGeometry relative="1" as="geometry" />
        </mxCell>
        <mxCell id="njJukKCMJdsK1ICvW-uf-39" value="" style="endArrow=block;rounded=0;edgeStyle=orthogonalEdgeStyle;orthogonalLoop=1;jettySize=auto;html=1;" edge="1" parent="1" source="njJukKCMJdsK1ICvW-uf-17" target="njJukKCMJdsK1ICvW-uf-19">
          <mxGeometry relative="1" as="geometry" />
        </mxCell>
        <mxCell id="njJukKCMJdsK1ICvW-uf-40" value="" style="endArrow=block;rounded=0;edgeStyle=orthogonalEdgeStyle;orthogonalLoop=1;jettySize=auto;html=1;" edge="1" parent="1" source="njJukKCMJdsK1ICvW-uf-19" target="njJukKCMJdsK1ICvW-uf-11">
          <mxGeometry relative="1" as="geometry" />
        </mxCell>
        <mxCell id="njJukKCMJdsK1ICvW-uf-41" value="" style="endArrow=block;rounded=0;edgeStyle=orthogonalEdgeStyle;orthogonalLoop=1;jettySize=auto;html=1;" edge="1" parent="1" source="njJukKCMJdsK1ICvW-uf-19" target="njJukKCMJdsK1ICvW-uf-10">
          <mxGeometry relative="1" as="geometry" />
        </mxCell>
        <mxCell id="njJukKCMJdsK1ICvW-uf-42" value="" style="endArrow=block;rounded=0;edgeStyle=orthogonalEdgeStyle;orthogonalLoop=1;jettySize=auto;html=1;" edge="1" parent="1" source="njJukKCMJdsK1ICvW-uf-17" target="njJukKCMJdsK1ICvW-uf-12">
          <mxGeometry relative="1" as="geometry" />
        </mxCell>
      </root>
    </mxGraphModel>
  </diagram>
</mxfile>
